<svg width="1440" height="1277" viewBox="0 0 1440 1277" fill="none" xmlns="http://www.w3.org/2000/svg">
<g opacity="0.15">
<path d="M-266.536 1047.01C-195.778 1120.47 13.0771 1242.6 282.434 1143.45C619.131 1019.51 650.257 791.992 959.575 678.512C1207.03 587.729 1629.63 638.639 1810 675.442" stroke="#99A19D" stroke-width="2"/>
<path d="M-288.439 613.961C-235.149 697.766 -60.1047 896.752 222.552 788.871C505.209 680.991 532.404 474.617 932.764 387.837C1369.85 293.095 1634.43 574.586 1801.27 637.191" stroke="#C7CFCB" stroke-width="2"/>
<path d="M-267.609 1027.8C-197.64 1101.8 10.1728 1227.62 279.909 1128.05C613.952 1005.3 645.076 778.931 958.797 666.18C1215.12 574.056 1632.04 636.607 1811.88 674.669" stroke="#9BA39F" stroke-width="2"/>
<path d="M-268.676 1008.58C-199.5 1083.12 7.21263 1212.63 277.354 1112.65C608.748 991.03 639.85 765.801 957.97 653.831C1223.19 560.481 1634.23 634.618 1813.53 673.936" stroke="#9DA5A1" stroke-width="2"/>
<path d="M-269.734 989.353C-201.356 1064.43 4.19947 1197.63 274.771 1097.23C603.52 976.706 634.579 752.603 957.098 641.47C1231.24 547.004 1636.22 632.672 1814.97 673.245" stroke="#A0A8A4" stroke-width="2"/>
<path d="M-270.784 970.122C-203.209 1045.73 1.13266 1182.62 272.159 1081.8C598.269 962.329 629.266 739.338 956.18 629.094C1239.27 533.628 1637.99 630.769 1816.18 672.593" stroke="#A2AAA6" stroke-width="2"/>
<path d="M-271.825 950.888C-205.057 1027.02 -1.98635 1167.6 269.521 1066.35C592.997 947.899 623.913 726.006 955.216 616.706C1247.28 520.353 1639.55 628.906 1817.16 671.979" stroke="#A4ACA8" stroke-width="2"/>
<path d="M-272.859 931.652C-206.903 1008.3 -5.15933 1152.57 266.855 1050.9C587.704 933.417 618.518 712.607 954.207 604.305C1255.25 507.18 1640.9 627.085 1817.92 671.403" stroke="#A6AEAA" stroke-width="2"/>
<path d="M-273.88 912.412C-208.739 989.574 -8.38071 1137.53 264.165 1035.44C582.395 918.882 613.089 699.142 953.158 591.893C1263.21 494.11 1642.04 625.302 1818.46 670.863" stroke="#A8B0AC" stroke-width="2"/>
<path d="M-274.893 893.173C-210.573 970.843 -11.6556 1122.48 261.448 1019.96C577.065 904.297 607.621 685.612 952.063 579.47C1271.14 481.144 1642.96 623.558 1818.78 670.359" stroke="#AAB3AE" stroke-width="2"/>
<path d="M-275.894 873.933C-212.398 952.107 -14.979 1107.42 258.707 1004.48C571.721 889.661 602.119 672.017 950.928 567.036C1279.04 468.283 1643.68 621.852 1818.88 669.889" stroke="#ADB5B1" stroke-width="2"/>
<path d="M-276.884 854.693C-214.217 933.365 -18.3529 1092.35 255.942 988.992C566.361 874.975 596.584 658.357 949.751 554.592C1286.91 455.528 1644.19 620.182 1818.75 669.453" stroke="#AFB7B3" stroke-width="2"/>
<path d="M-277.862 835.454C-216.027 914.62 -21.775 1077.28 253.154 973.495C560.988 860.24 591.018 644.633 948.534 542.138C1294.76 442.88 1644.49 618.547 1818.4 669.048" stroke="#B1B9B5" stroke-width="2"/>
<path d="M-278.828 816.217C-217.831 895.871 -25.2467 1062.19 250.341 957.99C555.601 845.457 585.42 630.844 947.276 529.674C1302.57 430.338 1644.57 616.947 1817.83 668.675" stroke="#B3BBB7" stroke-width="2"/>
<path d="M-279.782 796.982C-219.625 877.118 -28.7656 1047.1 247.507 942.478C550.203 830.624 579.795 616.992 945.981 517.201C1310.36 417.904 1644.45 615.379 1817.04 668.331" stroke="#B5BEB9" stroke-width="2"/>
<path d="M-280.751 777.533C-221.439 858.147 -32.3609 1031.78 244.621 926.742C544.766 815.528 574.113 602.859 944.618 504.503C1318.08 405.362 1644.09 613.627 1816 667.798" stroke="#B7C0BC" stroke-width="2"/>
<path d="M-282.137 754.157C-223.674 835.243 -36.4324 1012.52 241.285 907.069C538.89 796.453 567.976 584.733 942.787 487.866C1325.34 388.999 1643.09 607.974 1814.31 663.362" stroke="#BAC2BE" stroke-width="2"/>
<path d="M-283.429 730.783C-225.819 812.336 -40.4711 993.255 238.006 887.389C533.084 777.33 561.894 566.542 940.999 471.219C1332.64 372.744 1641.96 602.349 1812.48 658.949" stroke="#BCC4C0" stroke-width="2"/>
<path d="M-284.625 707.411C-227.871 789.425 -44.4722 973.975 234.791 867.699C527.355 758.156 555.873 548.285 939.259 454.561C1340 356.595 1640.71 596.749 1810.51 654.558" stroke="#BEC6C2" stroke-width="2"/>
<path d="M-285.722 684.042C-229.829 766.512 -48.4355 954.684 231.639 848.002C521.703 738.935 549.913 529.963 937.565 437.893C1347.4 340.555 1639.33 591.173 1808.41 650.188" stroke="#C0C9C4" stroke-width="2"/>
<path d="M-286.724 660.676C-231.695 743.597 -52.3621 935.383 228.548 828.298C516.128 719.666 544.014 511.577 935.918 421.215C1354.84 324.624 1637.83 585.621 1806.17 645.837" stroke="#C2CBC7" stroke-width="2"/>
<path d="M-287.629 637.315C-233.468 720.681 -56.2514 916.072 225.52 808.587C510.63 700.351 538.178 493.128 934.318 404.53C1362.33 308.804 1636.19 580.092 1803.79 641.505" stroke="#C4CDC9" stroke-width="2"/>
</g>
</svg>
