<svg width="16" height="16" viewBox="0 0 16 16" fill="none" xmlns="http://www.w3.org/2000/svg">
<path id="Vector" fillRule="evenodd" clipRule="evenodd" d="M0 2.4001C0 1.07456 1.07452 0 2.4 0H13.6C14.9255 0 16 1.07456 16 2.4001V3.33739C16 3.97393 15.7471 4.58441 15.297 5.03451L10.6343 9.69743C10.4843 9.84751 10.4 10.051 10.4 10.2631V12.1378C10.4 12.7743 10.1471 13.3848 9.69704 13.8349L7.93544 15.5965C7.0736 16.4584 5.6 15.848 5.6 14.6291V10.2631C5.6 10.051 5.51571 9.84751 5.36569 9.69743L0.702944 5.03451C0.252856 4.58441 0 3.97393 0 3.33739V2.4001ZM2.4 1.60006C1.95818 1.60006 1.6 1.95825 1.6 2.4001V3.33739C1.6 3.54957 1.68429 3.75306 1.83431 3.9031L6.49704 8.56602C6.94712 9.01612 7.2 9.62662 7.2 10.2631V14.0692L8.56568 12.7035C8.71568 12.5534 8.8 12.3499 8.8 12.1378V10.2631C8.8 9.62662 9.05288 9.01612 9.50296 8.56602L14.1657 3.9031C14.3157 3.75306 14.4 3.54957 14.4 3.33739V2.4001C14.4 1.95825 14.0418 1.60006 13.6 1.60006H2.4Z" fill="#3A5A66"/>
</svg>
