<svg width="132" height="132" viewBox="0 0 132 132" fill="none" xmlns="http://www.w3.org/2000/svg">
<g id="Group" opacity="0.1">
<path id="Vector" d="M66.0002 26.4001C59.1164 26.4088 52.5174 29.1472 47.6501 34.0145C42.7827 38.8819 40.0444 45.481 40.0356 52.3645H53.2358C53.2358 45.3223 58.9646 39.6001 66.0002 39.6001C73.0358 39.6001 78.7646 45.3223 78.7646 52.3645C78.7646 56.3113 75.59 59.1757 70.739 63.0961C69.1543 64.3376 67.6317 65.6569 66.1784 67.0495C59.5916 73.6297 59.4002 80.6191 59.4002 81.3979V85.8001H72.6002L72.5936 81.6223C72.6002 81.5167 72.8114 79.0747 75.5042 76.3885C76.4942 75.3985 77.7416 74.4085 79.0352 73.3657C84.1766 69.2011 91.958 62.9113 91.958 52.3645C91.9527 45.4811 89.2163 38.881 84.3495 34.013C79.4827 29.1451 72.8833 26.4071 66.0002 26.4001ZM59.4002 92.4001H72.6002V105.6H59.4002V92.4001Z" fill="white"/>
<path id="Vector_2" d="M66 0C29.6076 0 0 29.6076 0 66C0 102.392 29.6076 132 66 132C102.392 132 132 102.392 132 66C132 29.6076 102.392 0 66 0ZM66 118.8C36.8874 118.8 13.2 95.1126 13.2 66C13.2 36.8874 36.8874 13.2 66 13.2C95.1126 13.2 118.8 36.8874 118.8 66C118.8 95.1126 95.1126 118.8 66 118.8Z" fill="white"/>
</g>
</svg>
