<svg xmlns="http://www.w3.org/2000/svg" width="42" height="52" viewBox="0 0 42 52" fill="none">
  <path d="M5.11036 52H2.4967V0H5.11036V52Z" fill="#D1D8DE"/>
  <path d="M33.4703 52H4.40808V0H41.1943V44.2956L33.4703 52Z" fill="#EFF2F4"/>
  <path d="M0 20.7529V5.55859L2.49662 8.01621V23.23L0 20.7529Z" fill="#B73737"/>
  <path d="M33.4705 44.2959H41.1944L33.4705 52.0003V44.2959Z" fill="#CFD8DF"/>
  <path d="M0 20.7529V5.55859H27.4044V20.7529H0Z" fill="#EE4937"/>
  <path d="M20.1875 37.6247C20.6556 36.6885 21.2017 35.6548 21.6309 34.6015L21.8064 34.1919C21.2408 32.0464 20.9092 30.3299 21.2017 29.2376C21.2798 28.9451 21.6113 28.7695 21.9819 28.7695H22.1965H22.2355C22.7231 28.7695 22.9572 29.3937 22.9767 29.6277C23.0157 30.0373 22.8402 30.72 22.8402 30.72C22.8402 30.447 22.8597 29.9983 22.6841 29.6082C22.4891 29.1596 22.294 28.9061 22.1185 28.8476C22.0405 28.9061 21.9429 29.0231 21.9234 29.2572C21.8649 29.5887 21.8454 29.9983 21.8454 30.2129C21.8454 30.9736 22.0014 31.9488 22.2745 32.9826C22.333 32.8265 22.372 32.6705 22.411 32.534C22.4696 32.2999 22.8402 30.8175 22.8402 30.8175C22.8402 30.8175 22.7426 32.807 22.6061 33.3922C22.5866 33.5092 22.5476 33.6458 22.5086 33.7823C22.9962 35.1281 23.7569 36.3179 24.6736 37.1761C25.0442 37.5077 25.4928 37.7808 25.9219 38.0343C26.8777 37.8978 27.7359 37.8393 28.4771 37.8393C29.4523 37.8588 30.1545 37.9953 30.4471 38.2879C30.5836 38.4244 30.6421 38.6 30.6616 38.7755C30.6616 38.8536 30.6226 39.0096 30.6226 39.0681C30.6421 39.0096 30.6421 38.756 29.8619 38.522C29.2573 38.3269 28.1065 38.3269 26.7411 38.483C28.321 39.2632 29.8814 39.6533 30.369 39.4192C30.4861 39.3607 30.6421 39.1656 30.6421 39.1656C30.6421 39.1656 30.5641 39.5557 30.4861 39.6533C30.408 39.7508 30.252 39.8678 30.096 39.9068C29.3158 40.1214 27.3068 39.6337 25.5513 38.639C23.5813 38.9316 21.4358 39.4582 19.6999 40.0238C18.0029 43.0081 16.7351 44.3734 15.6819 43.8468L15.2918 43.6518C15.1357 43.5542 15.1162 43.3397 15.1552 43.1641C15.2723 42.579 16.0134 41.6818 17.5153 40.7845C17.6714 40.687 18.393 40.3164 18.393 40.3164C18.393 40.3164 17.8664 40.8235 17.7299 40.9211C16.5401 41.8963 15.6624 43.1251 15.6819 43.5932V43.6322C16.6961 43.4957 18.2175 41.4282 20.168 37.6052L20.1875 37.6247ZM20.8116 37.9368C20.4801 38.5415 20.168 39.1266 19.8754 39.6337C21.4943 38.9511 23.2498 38.522 24.9077 38.2099C24.6931 38.0539 24.4591 37.8978 24.264 37.7223C23.3473 36.9421 22.6451 35.9668 22.138 34.9526C21.8259 35.8108 21.4358 36.747 20.8116 37.9368Z" fill="#EE4937"/>
  <path d="M5.13074 9.59668H7.68588C8.34904 9.59668 8.87567 9.79173 9.28528 10.2013C9.69488 10.6109 9.88993 11.1181 9.88993 11.7617C9.88993 12.4054 9.69488 12.932 9.28528 13.3221C8.87567 13.7122 8.34904 13.9073 7.68588 13.9073H6.1645V16.3844H5.15024V9.59668H5.13074ZM6.14499 10.4744V13.049H7.10073C7.3933 13.049 7.62736 13.0295 7.84192 12.9905C8.03696 12.9515 8.21251 12.893 8.38805 12.7955C8.54409 12.698 8.66112 12.5614 8.73914 12.4054C8.81716 12.2298 8.85617 12.0153 8.85617 11.7617C8.85617 11.3521 8.73914 11.04 8.52459 10.806C8.31003 10.5719 7.97845 10.4744 7.56885 10.4744H6.1645H6.14499Z" fill="#F1F2F2"/>
  <path d="M10.9043 9.59668H13.1669C13.596 9.59668 13.9861 9.65519 14.3177 9.75272C14.6492 9.86975 14.9418 10.0063 15.1759 10.2013C15.4099 10.3964 15.5855 10.6304 15.7415 10.923C15.8975 11.2156 15.9951 11.5277 16.0731 11.8592C16.1316 12.1908 16.1706 12.5614 16.1706 12.971C16.1706 13.3806 16.1316 13.7317 16.0731 14.0828C16.0146 14.4144 15.8975 14.7265 15.761 15.019C15.605 15.3116 15.4294 15.5457 15.1954 15.7407C14.9613 15.9358 14.6882 16.0918 14.3372 16.2088C14.0056 16.3259 13.6155 16.3844 13.1669 16.3844H10.9043V9.59668ZM11.9186 10.4744V15.5067H13.0693C13.752 15.5067 14.2591 15.2921 14.5907 14.8825C14.9223 14.4729 15.0978 13.8487 15.0978 12.9905C15.0978 12.6004 15.0588 12.2493 14.9808 11.9568C14.9028 11.6642 14.7858 11.3911 14.6297 11.1571C14.4737 10.923 14.2591 10.767 14.0056 10.6499C13.7325 10.5329 13.4204 10.4744 13.0498 10.4744H11.899H11.9186Z" fill="#F1F2F2"/>
  <path d="M18.4136 16.3844H17.3799V9.59668H21.4954V10.4744H18.4136V12.6589H21.2418V13.5367H18.4136V16.3844Z" fill="#F1F2F2"/>
</svg>
