<svg xmlns="http://www.w3.org/2000/svg" width="42" height="52" viewBox="0 0 42 52" fill="none">
  <path d="M5.11039 52H2.49673V0H5.11039V52Z" fill="#D1D8DE"/>
  <path d="M33.4703 52H4.40807V0H41.1943V44.2956L33.4703 52Z" fill="#EFF2F4"/>
  <path d="M0 20.7529V5.55859L2.49662 8.01621V23.23L0 20.7529Z" fill="#1E4387"/>
  <path d="M33.4704 44.2959H41.1944L33.4704 52.0003V44.2959Z" fill="#D1D8DE"/>
  <path d="M0 20.7529V5.55859H30.6422V20.7529H0Z" fill="#2654A9"/>
  <path d="M5.40299 15.1948H6.45625C7.0609 15.1948 7.50951 15.0387 7.78258 14.7071C8.05565 14.3951 8.19218 13.8684 8.19218 13.1468C8.19218 12.4251 8.05565 11.8984 7.80209 11.5669C7.54852 11.2353 7.13892 11.0597 6.59279 11.0597H5.36398V15.1948H5.40299ZM4.11567 16.3651V9.92845H6.63179C7.62654 9.92845 8.34822 10.2015 8.83585 10.7281C9.32347 11.2548 9.55753 12.074 9.55753 13.1468C9.55753 13.7319 9.46 14.2585 9.28446 14.7071C9.10891 15.1558 8.83585 15.5068 8.50426 15.7799C8.2507 15.975 7.95813 16.131 7.62654 16.2285C7.29496 16.326 6.84635 16.3651 6.2612 16.3651H4.09616H4.11567ZM11.0009 13.1468C11.0009 13.8489 11.1569 14.3951 11.469 14.8047C11.7811 15.1948 12.2297 15.3898 12.7953 15.3898C13.361 15.3898 13.8096 15.1948 14.1217 14.8047C14.4337 14.4146 14.5898 13.8684 14.5898 13.1468C14.5898 12.4446 14.4337 11.8984 14.1217 11.5083C13.8096 11.1182 13.361 10.9232 12.7953 10.9232C12.2297 10.9232 11.8006 11.1182 11.469 11.5083C11.1569 11.8984 11.0009 12.4446 11.0009 13.1663V13.1468ZM9.65505 13.1468C9.65505 12.113 9.94762 11.2938 10.5133 10.6696C11.0789 10.065 11.8396 9.7529 12.7953 9.7529C13.7511 9.7529 14.5118 10.065 15.0969 10.6696C15.6626 11.2743 15.9551 12.113 15.9551 13.1468C15.9551 14.1805 15.6626 14.9997 15.0969 15.6239C14.5313 16.2285 13.7706 16.5406 12.7953 16.5406C11.8396 16.5406 11.0789 16.2285 10.5133 15.6239C9.94762 15.0192 9.65505 14.1805 9.65505 13.1468ZM21.8846 14.1415C21.8261 14.8632 21.553 15.4483 21.0459 15.8774C20.5388 16.3065 19.8561 16.5211 19.0369 16.5211C18.0812 16.5211 17.34 16.2285 16.8133 15.6239C16.2867 15.0387 16.0136 14.2 16.0136 13.1272C16.0136 12.035 16.2867 11.1963 16.8133 10.6111C17.3595 10.026 18.1202 9.7334 19.1344 9.7334C19.9536 9.7334 20.5973 9.92845 21.0849 10.338C21.553 10.7281 21.8261 11.3133 21.8651 12.035H20.5583C20.4998 11.6644 20.3632 11.3913 20.1097 11.1963C19.8756 11.0012 19.544 10.9037 19.1344 10.9037C18.5493 10.9037 18.1007 11.0987 17.8081 11.4693C17.496 11.8399 17.3595 12.3861 17.3595 13.1077C17.3595 13.8099 17.5155 14.3365 17.8081 14.7266C18.1202 15.1167 18.5298 15.2923 19.0954 15.2923C19.505 15.2923 19.8171 15.1948 20.0902 14.9802C20.3437 14.7657 20.5193 14.4731 20.5973 14.1025H21.8846V14.1415ZM21.5335 16.3456L23.562 13.0687L21.5335 9.92845H23.0549L24.3617 12.1715L25.6686 9.92845H27.2094L25.1809 13.0687L27.2094 16.3651H25.6881L24.3812 14.1415L23.0744 16.3651H21.553L21.5335 16.3456Z" fill="white"/>
  <path fill-rule="evenodd" clip-rule="evenodd" d="M16.462 32.456V40.2969L29.3742 42.462V30.2909L16.462 32.456ZM15.1552 31.3637L30.6615 28.7695V44.0223L15.1552 41.4282V31.3832V31.3637Z" fill="#2654A9"/>
  <path fill-rule="evenodd" clip-rule="evenodd" d="M20.6361 38.0737L20.7726 37.7031L21.1042 36.8644L22.3135 34.0947H23.5228V36.9424C23.5228 37.313 23.4838 37.7031 23.4253 38.0737C23.4448 38.0152 23.6008 37.5861 23.9129 36.8254L25.0052 34.0752H26.39L24.1079 39.3415H22.45V37.118C22.45 36.7474 22.4695 36.3573 22.489 35.9477C22.411 36.2597 22.2745 36.6888 22.0599 37.196L21.1432 39.3415H19.5828L19.4073 34.0752H20.7336L20.6946 36.7084C20.6751 37.352 20.6556 37.8006 20.5971 38.0542L20.6361 38.0737Z" fill="#2654A9"/>
</svg>
