<?xml version="1.0" standalone="no"?>
<!DOCTYPE svg PUBLIC "-//W3C//DTD SVG 20010904//EN"
 "http://www.w3.org/TR/2001/REC-SVG-20010904/DTD/svg10.dtd">
<svg version="1.0" xmlns="http://www.w3.org/2000/svg"
 width="372.000000pt" height="371.000000pt" viewBox="0 0 372.000000 371.000000"
 preserveAspectRatio="xMidYMid meet">

<g transform="translate(0.000000,371.000000) scale(0.100000,-0.100000)"
fill="#000000" stroke="none">
<path d="M0 1855 l0 -1855 1860 0 1860 0 0 1855 0 1855 -1860 0 -1860 0 0
-1855z m1226 1172 c166 -35 252 -155 242 -338 -6 -100 -41 -175 -105 -224 -68
-52 -124 -65 -285 -65 l-138 0 0 320 0 320 113 0 c61 0 139 -6 173 -13z m874
-17 l0 -30 -130 0 -130 0 0 -115 0 -114 118 -3 117 -3 3 -27 3 -28 -120 0
-121 0 0 -120 0 -120 130 0 130 0 0 -25 0 -25 -165 0 -165 0 0 320 0 320 165
0 165 0 0 -30z m660 0 l0 -30 -140 0 -140 0 0 -115 0 -115 115 0 115 0 0 -30
0 -30 -115 0 -115 0 0 -145 0 -145 -35 0 -35 0 0 320 0 320 175 0 175 0 0 -30z
m-1580 -1665 l0 -685 -120 0 -120 0 0 617 0 617 67 68 c66 67 68 68 120 68
l53 0 0 -685z m1440 275 l0 -410 70 0 70 0 0 -105 0 -105 -70 0 -70 0 0 -170
0 -170 -120 0 -120 0 0 170 0 170 -310 0 -310 0 0 70 0 70 377 445 376 445 54
0 53 0 0 -410z"/>
<path d="M1010 2714 l0 -267 108 5 c129 6 189 30 233 91 39 54 52 108 47 198
-10 166 -101 239 -300 239 l-88 0 0 -266z"/>
<path d="M2227 1387 l-148 -172 147 -3 c81 -1 149 -1 151 1 2 2 2 81 1 175
l-3 170 -148 -171z"/>
</g>
</svg>
