<svg width="500" height="250" viewBox="0 0 500 250" fill="none" xmlns="http://www.w3.org/2000/svg">
<rect x="500" y="250" width="500" height="250" transform="rotate(-180 500 250)" fill="#3A5A66"/>
<path d="M267.902 89.5972V95.6658H235.675V122.975H262.879V129.043H235.675V162.735H228.351V89.5972H267.902Z" fill="white"/>
<path d="M162.126 95.5649V122.874H189.853V128.942H162.126V156.67H192.992V162.738H154.802V89.4963H192.992V95.5649H162.126Z" fill="white"/>
<path d="M81.6587 89.5972C89.7502 89.5972 96.6908 91.062 102.48 93.9917C108.27 96.9214 112.699 101.142 115.769 106.652C118.838 112.163 120.372 118.72 120.372 126.323C120.372 133.856 118.838 140.378 115.769 145.889C112.699 151.33 108.27 155.515 102.48 158.445C96.6908 161.305 89.7502 162.735 81.6587 162.735H60V89.5972H81.6587ZM81.6587 156.666C91.8429 156.666 99.5856 154.015 104.887 148.714C110.258 143.343 112.944 135.879 112.944 126.323C112.944 116.697 110.258 109.198 104.887 103.827C99.5856 98.3862 91.8429 95.6658 81.6587 95.6658H67.3242V156.666H81.6587Z" fill="white"/>
<path d="M354.052 162.737H340.973V95.4737L348.447 88H354.052V162.737Z" fill="white"/>
<path fillRule="evenodd" clipRule="evenodd" d="M385.815 136.579L426.919 88.002L426.921 88H426.921H432.526V132.842H440V144.052H432.526V162.737H419.447V144.052H397.96L397.96 144.053H385.815V136.579ZM402.632 132.842H419.447V113.371L402.632 132.842Z" fill="white"/>
</svg>
