<svg width="82" height="16" viewBox="0 0 82 16" fill="none" xmlns="http://www.w3.org/2000/svg">
<path d="M44.5076 0.341949V1.64112H37.6085V7.48741H43.4324V8.78658H37.6085V15.9992H36.0406V0.341949H44.5076Z" fill="black"/>
<path d="M21.8632 1.61949V7.46577H27.7991V8.76495H21.8632V14.7008H28.4711V16H20.2952V0.320312H28.4711V1.61949H21.8632Z" fill="black"/>
<path d="M4.63671 0.341949C6.36894 0.341949 7.85478 0.655544 9.09422 1.28273C10.3337 1.90992 11.2819 2.81337 11.939 3.99308C12.596 5.17279 12.9245 6.57649 12.9245 8.2042C12.9245 9.81696 12.596 11.2132 11.939 12.3929C11.2819 13.5577 10.3337 14.4537 9.09422 15.0809C7.85478 15.6931 6.36894 15.9992 4.63671 15.9992H0V0.341949H4.63671ZM4.63671 14.7001C6.81693 14.7001 8.4745 14.1326 9.60941 12.9977C10.7593 11.8479 11.3342 10.25 11.3342 8.2042C11.3342 6.14344 10.7593 4.53813 9.60941 3.38829C8.4745 2.22351 6.81693 1.64112 4.63671 1.64112H1.56797V14.7001H4.63671Z" fill="black"/>
<path d="M62.9508 15.9998H60.1509V1.59998L61.7509 0H62.9508V15.9998Z" fill="black"/>
<path fillRule="evenodd" clipRule="evenodd" d="M69.7507 10.3999L78.5504 0.000165303L78.5506 0H79.7505V9.59976H81.3505V11.9997H79.7505V15.9998H76.9506V11.9997H72.3507L72.3506 11.9998H69.7507V10.3999ZM73.3507 9.59976H76.9506V5.43152L73.3507 9.59976Z" fill="black"/>
</svg>
