<svg width="250" height="250" viewBox="0 0 250 250" fill="none" xmlns="http://www.w3.org/2000/svg">
<rect x="250" y="250" width="250" height="250" transform="rotate(-180 250 250)" fill="#3A5A66"/>
<path d="M184.974 46.0582V49.5602H166.377V65.3193H182.075V68.8213H166.377V88.2636H162.15V46.0582H184.974Z" fill="white"/>
<path d="M123.934 49.502V65.2611H139.934V68.7631H123.934V84.7637H141.746V88.2658H119.707V46H141.746V49.502H123.934Z" fill="white"/>
<path d="M77.4986 46.0582C82.168 46.0582 86.1731 46.9036 89.5141 48.5942C92.8552 50.2848 95.4112 52.7201 97.1824 55.9001C98.9535 59.0801 99.8391 62.8639 99.8391 67.2515C99.8391 71.5988 98.9535 75.3625 97.1824 78.5425C95.4112 81.6822 92.8552 84.0974 89.5141 85.7881C86.1731 87.4384 82.168 88.2636 77.4986 88.2636H65V46.0582H77.4986ZM77.4986 84.7616C83.3755 84.7616 87.8436 83.232 90.9029 80.1727C94.0024 77.0733 95.5521 72.7662 95.5521 67.2515C95.5521 61.6966 94.0024 57.3694 90.9029 54.2699C87.8436 51.1301 83.3755 49.5603 77.4986 49.5603H69.2266V84.7616H77.4986Z" fill="white"/>
<path d="M80.8491 203.055H65V121.546L74.0566 112.489H80.8491V203.055Z" fill="white"/>
<path fillRule="evenodd" clipRule="evenodd" d="M119.339 171.357L169.149 112.491L169.151 112.489L169.151 112.489L175.943 112.489V166.828H185V180.413H175.943V203.055H160.094V180.413H134.057L134.056 180.414H119.339V171.357ZM139.717 166.828H160.094V143.234L139.717 166.828Z" fill="white"/>
</svg>
